<svg viewBox="0 0 100 100"><path d="M30.734,47.862l10.419,2.548-4.368-45.922-11.72-2.866L0,40.347l10.549,2.579,5.48-9.149,14,3.423.705,10.661ZM19.768,27.515l8.705-14.433,1.063,16.822-9.769-2.389Z"/><path d="M57.254,69.704c4.048-2.487,5.689-6.681,4.497-11.081-1.667-6.147-7.835-9.683-13.981-8.017l-21.092,5.719,11.402,42.053,22.386-6.07c6.404-1.736,10.13-8.234,8.358-14.767-1.421-5.241-5.919-8.258-11.57-7.838ZM38.534,62.14l8.671-2.351c2.457-.666,4.796.783,5.463,3.241.667,2.459-.555,4.873-2.948,5.522l-8.8,2.386-2.385-8.798ZM55.234,84.282l-9.965,2.702-2.526-9.317,9.834-2.666c2.717-.737,5.203.742,5.922,3.394s-.612,5.168-3.265,5.887Z"/><path d="M88.717,38.936c.386,5.275-2.44,9.433-7.079,10.5-6.14,1.411-11.944-2.895-13.611-10.146-1.652-7.186,1.68-13.936,7.494-15.272,4.377-1.006,8.772,1.354,10.833,5.832l9.159-6.232c-4.35-7.253-13.274-10.773-22.095-8.746-11.955,2.748-18.743,14.213-15.845,26.821,2.883,12.543,14.207,19.914,26.227,17.151,9.147-2.102,15.761-9.538,16.2-18.099l-11.283-1.809Z"/></svg>