<svg viewBox="0 0 100 100"><path d="M65.41-.01h-4.77v13.68c1.64.48,3.23,1.07,4.77,1.76V-.01Z"/><path d="M39.36-.01h-4.77v15.44c1.54-.69,3.13-1.28,4.77-1.76V-.01Z"/><path d="M52.38,12.23V-.01h-4.76v12.24c.79-.06,1.58-.08,2.38-.08s1.59.02,2.38.08Z"/><path d="M34.59,100.01h4.77v-13.68c-1.64-.48-3.23-1.07-4.77-1.76v15.44Z"/><path d="M47.62,87.77v12.24h4.76v-12.24c-.79.06-1.58.08-2.38.08s-1.59-.02-2.38-.08Z"/><path d="M60.64,100.01h4.77v-15.44c-1.54.69-3.13,1.28-4.77,1.76v13.68Z"/><path d="M12.15,50c0,15.41,9.22,28.67,22.44,34.57V15.43c-13.22,5.9-22.44,19.16-22.44,34.57Z"/><path d="M39.36,13.67v72.66c2.64.78,5.41,1.27,8.26,1.44V12.23c-2.85.17-5.62.66-8.26,1.44Z"/><path d="M65.41,15.43v69.14c13.22-5.9,22.44-19.16,22.44-34.57s-9.22-28.67-22.44-34.57Z"/><path d="M52.38,12.23v75.54c2.85-.17,5.62-.66,8.26-1.44V13.67c-2.64-.78-5.41-1.27-8.26-1.44Z"/></svg>