<svg viewBox="0 0 100 100"><path d="M95.374,0c-2.452,0-4.478,1.919-4.614,4.367-.95,17.148-7.759,25.761-21.262,29.709-11.882,3.474-37.195,6.566-46.219,7.597-1.749.2-3.28-1.169-3.28-2.929h0c0-1.515-1.148-2.783-2.655-2.933l-14.104-1.41C1.506,34.227,0,35.59,0,37.334v25.332C0,64.41,1.506,65.773,3.241,65.599l14.104-1.41c1.507-.151,2.655-1.419,2.655-2.933v-.104c0-1.724,1.471-3.082,3.189-2.938,1.146.096,2.563.22,4.185.371-1.381,2.962-2.121,6.373-2.121,10.156,0,13.739,9.714,22.617,24.746,22.617,15.727,0,24.746-8.243,24.746-22.617,0-.122-.013-.234-.014-.355,9.281,5.071,15.072,12.821,16.01,27.288.158,2.43,2.175,4.326,4.61,4.326h.022c2.555,0,4.626-2.071,4.626-4.626V4.626c0-2.555-2.071-4.626-4.626-4.626h0ZM50,79.357c-10.535,0-12.746-5.773-12.746-10.617,0-3.065.893-6.499,4.214-8.61,6.956.887,14.428,2.052,20.493,3.505.612,1.55.786,3.303.786,5.105,0,5.515-1.544,10.617-12.746,10.617Z"/></svg>