<svg viewBox="0 0 100 100"><path d="M30.361,75.393c6.819-1.971,13.237,1.674,15.249,8.635,2.012,6.961-1.472,13.468-8.291,15.439s-13.243-1.673-15.255-8.633c-2.012-6.961,1.472-13.468,8.296-15.441ZM.814,10.292l19.799-5.723,14.495,60.174-14.45,4.177L.814,10.292Z"/><path d="M71.487,64.493c4.807,2.079,6.748,7.167,4.626,12.073-2.123,4.906-7.16,6.975-11.967,4.895s-6.752-7.169-4.63-12.075,7.16-6.975,11.97-4.894ZM85.231,13.569l13.955,6.037-19.998,41.054-10.185-4.406,16.228-42.685Z"/><path d="M50.966,46.234c4.599.277,7.731,3.902,7.448,8.596-.283,4.694-3.828,7.916-8.427,7.639-4.602-.277-7.735-3.902-7.452-8.596s3.828-7.916,8.43-7.639ZM47.052,0l13.351.805-4.218,39.949-9.745-.587.611-40.167Z"/></svg>