<?xml version="1.0" encoding="UTF-8"?>
<svg id="a" data-name="Layer 1" xmlns="http://www.w3.org/2000/svg" width="100" height="100" viewBox="0 0 100 100">
  <path d="M75,70h-10c-8.258,0-13.227-7.839-19.401-20,6.174-12.162,11.143-20,19.401-20h10v15l25-20-25-20v15h-10c-12.18,0-19.345,9.002-25,19.146-5.655-10.144-12.82-19.146-25-19.146H0v10h15c8.258,0,13.228,7.838,19.401,20-6.174,12.161-11.143,20-19.401,20H0v10h15c12.18,0,19.345-9.002,25-19.146,5.655,10.144,12.82,19.146,25,19.146h10v15l25-20-25-20v15Z" stroke-width="0"/>
</svg>