<svg viewBox="0 0 100 100"><path d="M31.156,47.962L4.766,12.488l3.347-2.488,26.525,35.656c.624-.181,1.285-.28,1.963-.28,3.89,0,7.038,3.157,7.038,7.038s-3.148,7.038-7.038,7.038-7.038-3.148-7.038-7.038c0-1.692.597-3.239,1.592-4.451ZM50,39.113c5.62,0,10.957.516,15.783,1.437l2.852-3.833c-5.684-1.194-11.989-1.864-18.634-1.864s-12.95.67-18.634,1.864l2.852,3.833c4.826-.921,10.163-1.437,15.783-1.437ZM78.495,39.542l-2.784,3.743c8.104,3.065,13.224,7.551,13.224,12.551,0,3.231-2.126,6.232-5.812,8.792-6.864,4.763-19.134,7.931-33.123,7.931s-26.258-3.168-33.122-7.931c-3.687-2.56-5.813-5.56-5.813-8.792,0-5,5.121-9.486,13.224-12.551l-2.784-3.743c-10.21,3.846-16.739,9.714-16.739,16.294v23.081c0,11.593,20.254,20.983,45.234,20.983s45.234-9.39,45.234-20.983v-23.081c0-6.58-6.529-12.448-16.739-16.294ZM63.398,45.375c-3.89,0-7.038,3.157-7.038,7.038s3.148,7.038,7.038,7.038,7.038-3.148,7.038-7.038c0-1.692-.597-3.239-1.592-4.451l26.389-35.475-3.347-2.488-26.525,35.655c-.624-.181-1.285-.28-1.963-.28ZM35,15c0-8.284,6.716-15,15-15s15,6.716,15,15-6.716,15-15,15-15-6.716-15-15ZM44.483,13.34h4.139v11.848h4.639V4.812h-4.514v1.381c-.063,1.659-1.223,2.882-2.759,2.882h-1.505v4.265Z"/></svg>