<svg viewBox="0 0 100 100"><path d="M15.25,50v-9.7c-.88-.19-1.8-.3-2.75-.3-6.9,0-12.5,5.6-12.5,12.5v35c0,6.9,5.6,12.5,12.5,12.5s12.5-5.6,12.5-12.5v-22.77c-5.73-2.44-9.75-8.13-9.75-14.73Z"/><path d="M52.75,50v-9.7c-.88-.19-1.8-.3-2.75-.3s-1.87.11-2.75.3v9.7c0,6.6-4.02,12.29-9.75,14.73v22.77c0,6.9,5.6,12.5,12.5,12.5s12.5-5.6,12.5-12.5v-22.77c-5.73-2.44-9.75-8.13-9.75-14.73Z"/><path d="M96.34,43.66c-2.26-2.26-5.39-3.66-8.84-3.66-.95,0-1.87.11-2.75.3v9.7c0,6.6-4.02,12.29-9.75,14.73v22.77c0,6.9,5.6,12.5,12.5,12.5s12.5-5.6,12.5-12.5v-35c0-3.45-1.4-6.58-3.66-8.84Z"/><path d="M41.25,50V10c0-5.52-4.48-10-10-10s-10,4.48-10,10v40c0,3.15,1.46,5.97,3.75,7.8,1.71,1.38,3.88,2.2,6.25,2.2s4.54-.82,6.25-2.2c2.29-1.83,3.75-4.65,3.75-7.8Z"/><path d="M78.75,50V10c0-5.52-4.48-10-10-10s-10,4.48-10,10v40c0,3.15,1.46,5.97,3.75,7.8,1.71,1.38,3.88,2.2,6.25,2.2s4.54-.82,6.25-2.2c2.29-1.83,3.75-4.65,3.75-7.8Z"/></svg>